<svg xmlns="http://www.w3.org/2000/svg" xml:space="preserve" viewBox="0 0 512 512"><path fill="#d0d4d6" d="M147 81V46c0-6-6-12-12-12H75c-7 0-12 6-12 12v35h84z"/><path fill="#bcbfc1" d="M117 34H75c-7 0-12 6-12 12v35h42V46c0-6 5-12 12-12z"/><path fill="#d0d4d6" d="m392 87-5-36c-1-6-6-11-13-10l-60 6c-6 1-11 7-10 13l4 36 84-9z"/><path fill="#bcbfc1" d="m345 44-31 3c-6 1-11 7-10 13l4 36 41-5c-6-43-6-42-4-47z"/><path fill="#989c9e" d="M163 305V90c0-6-5-11-12-11H58c-6 0-11 5-11 11v215h116z"/><path fill="#797f82" d="M116 79H58c-6 0-11 5-11 11v215h58V90c0-6 5-11 11-11z"/><path fill="#989c9e" d="m320 318 13-14h98L408 93c-1-6-7-10-13-10l-92 10c-7 1-11 7-10 13l23 212h4z"/><path fill="#797f82" d="M348 98c-1-4 1-8 4-10l-49 5c-7 1-11 7-10 13l23 212h4l13-14h37L348 98zm42 205-2 1h43v-1z"/><path fill="#8c614b" d="M492 300H332l-41 44-28 45c-3 5-1 9 3 13l13 15c3 4 0 8-1 10l-1 1-26 30c-5 7-7 2-7-2v-21c0-6-3-10-8-13l-36-27c-5-4-6-8-3-14l16-31c3-6 0-12-1-14l-25-36H20c-7 0-12 6-12 12v181c0 6 5 12 12 12h472c7 0 12-6 12-12V312c0-6-5-12-12-12z"/><path fill="#725346" d="M33 493V312c0-6 5-12 12-12H20c-7 0-12 6-12 12v181c0 6 5 12 12 12h25c-7 0-12-6-12-12z"/><path fill="#c16c33" d="M214 343c0-5 0-5-27-43H20c-7 0-12 6-12 12v28l116-7 90 10z"/><path fill="#aa5d24" d="M33 312c0-6 5-12 12-12H20c-7 0-12 6-12 12v28l25-1v-27z"/><path fill="#8c614b" d="M223 297c-2 0-7 0-4 6 4 10 14 31 22 23 9-9 15-27-18-29z"/><path fill="#c16c33" d="M492 300H332l-27 29 96 11 103-5v-23c0-6-5-12-12-12z"/><path d="M136 109H74a7 7 0 1 0 0 15h62a7 7 0 1 0 0-15zm0 28H74a7 7 0 1 0 0 15h62a7 7 0 1 0 0-15zm0 28H74a7 7 0 1 0 0 15h62a7 7 0 1 0 0-15zm0 28H74a7 7 0 1 0 0 15h62a7 7 0 1 0 0-15zm0 28H74a7 7 0 1 0 0 15h62a7 7 0 1 0 0-15zm0 28H74a7 7 0 1 0 0 15h62a7 7 0 1 0 0-15zm249-119a7 7 0 0 0-2-15l-61 6a7 7 0 0 0 1 15l62-6zm-59 34 62-6a7 7 0 1 0-2-15l-61 6a7 7 0 1 0 1 15zm3 28 62-7a7 7 0 1 0-2-14l-61 6a7 7 0 0 0 1 15zm3 28 62-7a7 7 0 1 0-2-15l-61 7a7 7 0 0 0 1 15zm3 28 62-7a7 7 0 0 0-2-15l-61 7a7 7 0 0 0 1 15zm3 28 62-7a7 7 0 1 0-2-15l-61 7a7 7 0 1 0 1 15zm-101 59 9-3c18-19 10-42-23-43-9 0-15 7-11 16 5 12 13 30 25 30zm3-25c1 2 0 6-3 9-2-1-5-6-9-14 8 1 12 3 12 5zm-6 39c-3 7-6 20 0 19 8 0 18-6 4-20-1 0-3-2-4 1z"/><path d="M492 293h-55l-13-122a7 7 0 1 0-15 2l13 120c-97 0-92-1-95 2l-6 6-21-196c0-2 1-4 3-4l93-10c2 0 4 1 4 3l6 54a7 7 0 1 0 15-2l-6-53c-1-10-9-17-18-17l-2-25c-2-11-11-19-22-18l-22 3-2-19a7 7 0 1 0-15 1l2 19-22 3c-11 1-19 11-18 21l3 25c-9 3-15 11-14 21l23 208-23 25-32 51c-2 3-2 7 1 9l19 21-21 25v-19l-3-6-47-34c23-44 22-41 22-44s1-1-31-47c-1-2-3-3-6-3h-17v-41a7 7 0 1 0-15 0v41H54V90c0-2 2-4 4-4h93c2 0 4 2 4 4v137a7 7 0 1 0 15 0V90c0-9-7-17-16-18V46c0-10-9-19-19-19h-23V7a7 7 0 1 0-15 0v20H75c-11 0-20 9-20 19v26c-9 1-16 9-16 18v203H20c-11 0-20 8-20 19v181c0 10 9 19 20 19h50a7 7 0 1 0 0-15H20c-3 0-5-2-5-4V347l109-6 81 8-19 37c-2 3-1 7 2 9l49 36v36c0 7 8 10 13 4l38-45c3-3 3-7 0-10l-19-21c33-55 25-44 39-58l93 11 96-5v150c0 2-2 4-5 4H98a7 7 0 1 0 0 15h394c11 0 20-9 20-19V312c0-11-9-19-20-19zM315 55l60-7c2 0 4 2 5 4l2 25-68 8-3-25c0-3 2-5 4-5zM70 46c0-2 2-4 5-4h60c2 0 4 2 4 4v25H70V46zm54 280-109 6v-20c0-2 2-4 5-4h163l18 26-77-8zm277 7-80-10 15-15h156c3 0 5 2 5 4v16l-96 5z"/></svg>